PathFileType	4	(X/Y/Z)	E:\Qualisys_Data\Carbon_Farble_Plate\Data\Amateur_Runner\S1\T3\S1T3V22_c3d.trc
DataRate	CameraRate	NumFrames	NumMarkers	Units	OrigDataRate	OrigDataStartFrame	OrigNumFrames
200.000000	200.000000	4	39	mm	200.000000	37	297
Frame#	Time	LSHO			RSHO			LICST			RICST			LASIS			LHEEL			RASIS			LTROC			RTROC			SACR			LTH1			LSK4			LTH2			LTH3			RHM5			LSK2			LTH4			RTH1			LTOE			RTH2			RTH3			RTH4			LLEP			RLEP			LSK1			LSK3			RSK1			LHM5			RSK2			LFT1			RSK3			RSK4			LLME			RLME			RTOE			RHEEL			RFT1			RFT2			LFT2			
		X1	Y1	Z1	X2	Y2	Z2	X3	Y3	Z3	X4	Y4	Z4	X5	Y5	Z5	X6	Y6	Z6	X7	Y7	Z7	X8	Y8	Z8	X9	Y9	Z9	X10	Y10	Z10	X11	Y11	Z11	X12	Y12	Z12	X13	Y13	Z13	X14	Y14	Z14	X15	Y15	Z15	X16	Y16	Z16	X17	Y17	Z17	X18	Y18	Z18	X19	Y19	Z19	X20	Y20	Z20	X21	Y21	Z21	X22	Y22	Z22	X23	Y23	Z23	X24	Y24	Z24	X25	Y25	Z25	X26	Y26	Z26	X27	Y27	Z27	X28	Y28	Z28	X29	Y29	Z29	X30	Y30	Z30	X31	Y31	Z31	X32	Y32	Z32	X33	Y33	Z33	X34	Y34	Z34	X35	Y35	Z35	X36	Y36	Z36	X37	Y37	Z37	X38	Y38	Z38	X39	Y39	Z39	

38	0.185	-2374.74169921875	1487.883056640625	-496.3928527832031	-2395.00830078125	1450.964721679688	-165.3478698730469	-2435.55126953125	1001.149353027344	-485.351318359375	-2447.648193359375	1039.929443359375	-185.082763671875	-2386.721435546875	967.3236083984376	-453.7380676269531	-2665.918212890625	450.9423522949219	-388.5009460449219	-2406.779296875	990.5233154296876	-188.0344696044922	-2482.694580078125	877.1124267578125	-497.2528076171875	-2516.74853515625	902.07763671875	-160.9868774414062	-2556.191650390625	1034.931884765625	-336.5097351074219	-2294.55712890625	797.3067016601562	-470.7672729492188	-2516.69482421875	500.5816345214844	-419.21826171875	-2358.9482421875	750.3804931640625	-504.869873046875	-2238.31640625	710.236572265625	-463.08056640625	-2508.96728515625	71.73651123046875	-212.9272308349609	-2423.317626953125	525.6676635742188	-457.5908813476562	-2307.02587890625	664.7714233398438	-487.5406494140625	-2381.121337890625	769.99658203125	-169.3222198486328	-2571.56494140625	219.1948852539062	-386.3871154785156	-2459.37646484375	764.4156494140625	-152.2252807617188	-2377.057861328125	668.4379272460938	-178.3266143798828	-2458.31640625	665.3179321289062	-170.1170043945312	-2224.08837890625	551.3753662109375	-451.1253356933594	-2413.3759765625	498.3047180175781	-212.9456329345703	-2401.01123046875	445.2753601074219	-445.621337890625	-2500.064697265625	424.2987060546875	-439.6718444824219	-2489.522216796875	321.2429504394531	-208.1882019042969	-2617.031982421875	272.6133422851562	-446.9298095703125	-2561.84521484375	358.8720092773438	-210.5292510986328	-2688.9921875	431.8882751464844	-357.2911376953125	-2534.089111328125	233.4803161621094	-225.9344940185547	-2604.280517578125	271.7332153320312	-238.8535919189453	-2620.699462890625	413.1835632324219	-432.6704711914062	-2624.260009765625	140.2304382324219	-228.0895538330078	-2454.26904296875	74.49115753173828	-286.4496765136719	-2704.705810546875	112.4091415405273	-270.5608520507812	-2700.31298828125	82.50544738769531	-299.9263610839844	-2706.366943359375	86.67161560058594	-248.2178344726562	-2694.150146484375	433.64501953125	-409.4612731933594
39	0.19	-2357.17138671875	1491.675659179688	-497.5616149902344	-2371.724609375	1455.236328125	-166.8405609130859	-2414.279296875	1004.921447753906	-484.6449279785156	-2424.4384765625	1040.87255859375	-183.89697265625	-2365.50048828125	971.8230590820312	-453.2173461914062	-2633.83544921875	440.3675842285156	-388.2948303222656	-2382.464599609375	992.4915771484376	-187.2922210693359	-2461.158203125	882.1705322265625	-497.3885803222656	-2495.37841796875	904.3385620117188	-161.1004486083984	-2534.229248046875	1037.890625	-335.1260681152344	-2272.424072265625	805.1075439453125	-470.705322265625	-2485.707275390625	497.5838928222656	-418.7489929199219	-2335.482421875	756.2498168945312	-503.2596435546875	-2213.91015625	719.5438232421875	-462.6505432128906	-2509.005126953125	71.68550872802734	-213.1699981689453	-2393.470703125	526.4611206054688	-456.9990539550781	-2281.883544921875	672.630859375	-487.2242736816406	-2363.73583984375	769.99267578125	-169.9889526367188	-2528.46484375	212.0306091308594	-387.7354431152344	-2442.790283203125	766.3660888671875	-152.8938293457031	-2363.070556640625	668.9959106445312	-180.3514404296875	-2443.0009765625	667.7315063476562	-170.4581298828125	-2194.835205078125	560.5230102539062	-450.0169677734375	-2404.56494140625	498.630859375	-214.1445465087891	-2367.59033203125	447.1629943847656	-445.0386047363281	-2467.21435546875	423.2446594238281	-440.990234375	-2484.28515625	323.8667907714844	-208.70166015625	-2574.505615234375	264.19384765625	-447.6803283691406	-2556.1552734375	362.0193481445312	-210.6103668212891	-2655.114990234375	419.8850708007812	-358.1559143066406	-2530.702392578125	235.3683471679688	-225.7827758789062	-2599.9892578125	275.3884582519531	-238.7702178955078	-2586.42626953125	404.5465698242188	-433.03125	-2622.519775390625	143.5203552246094	-228.1152038574219	-2453.028076171875	73.7138671875	-286.5845336914062	-2702.759765625	114.4666595458984	-270.7747192382812	-2699.631591796875	84.69973754882812	-300.4566345214844	-2705.310791015625	89.44877624511719	-248.0070190429688	-2660.646240234375	421.2620239257812	-410.0162658691406
40	0.195	-2340.449951171875	1495.697265625	-499.3821105957031	-2348.15185546875	1459.58544921875	-168.3705902099609	-2393.461669921875	1009.779418945312	-484.6925964355469	-2401.52099609375	1042.429321289062	-183.469970703125	-2344.77490234375	976.0146484375	-453.8482666015625	-2600.71728515625	428.266357421875	-388.398193359375	-2360.448974609375	993.5690307617188	-186.8753814697266	-2439.770263671875	886.7705688476562	-498.0942077636719	-2474.7529296875	906.8124389648438	-161.5398101806641	-2511.99658203125	1041.12158203125	-333.7174072265625	-2249.400634765625	813.1224365234375	-470.4725341796875	-2455.62255859375	494.2693176269531	-419.1802062988281	-2311.876220703125	762.7186889648438	-503.1908264160156	-2189.189453125	728.506103515625	-461.9508056640625	-2508.704833984375	72.14863586425781	-213.5214385986328	-2364.26904296875	526.7875366210938	-456.79638671875	-2256.43310546875	680.2372436523438	-486.3963012695312	-2345.486328125	771.1650390625	-171.2130432128906	-2483.734130859375	205.9112091064453	-388.1861267089844	-2425.36474609375	768.6712646484375	-154.1695709228516	-2345.5654296875	669.8442993164062	-181.7175903320312	-2427.38818359375	670.3223266601562	-171.0169219970703	-2166.733154296875	569.8328247070312	-449.5324096679688	-2395.877197265625	499.6390380859375	-214.6073913574219	-2334.639404296875	448.3313903808594	-445.1353759765625	-2431.1484375	418.1326904296875	-440.1748962402344	-2479.856689453125	325.9712524414062	-209.1805419921875	-2531.552490234375	256.0182189941406	-447.9355773925781	-2550.610107421875	365.9469299316406	-211.3412170410156	-2620.953125	406.951416015625	-358.677001953125	-2526.130859375	239.0216217041016	-226.0582275390625	-2595.30859375	279.94677734375	-239.4891052246094	-2551.625732421875	395.3976745605469	-434.3332214355469	-2619.671142578125	147.1630249023438	-227.9218139648438	-2453.24658203125	73.44976043701172	-287.0305480957031	-2702.971435546875	121.248649597168	-270.1003112792969	-2698.01220703125	89.44200897216797	-299.8688049316406	-2703.65625	95.03760528564452	-247.3184509277344	-2626.291748046875	408.5392761230469	-410.3255615234375
41	0.2	-2322.14111328125	1499.445556640625	-500.6207885742188	-2325.149169921875	1463.957397460938	-170.1150970458984	-2372.29443359375	1014.431457519531	-484.3458251953125	-2378.0458984375	1044.931396484375	-183.3186645507812	-2323.507080078125	980.3246459960938	-453.8014526367188	-2567.35693359375	416.7790222167969	-388.9124450683594	-2339.26220703125	994.3430786132812	-187.6251831054688	-2417.133544921875	892.2410278320312	-498.7593994140625	-2454.50537109375	909.9920654296876	-162.18408203125	-2490.451904296875	1044.406860351562	-332.8731384277344	-2227.3115234375	821.0791625976562	-470.3928527832031	-2425.237060546875	489.7548828125	-419.0759887695312	-2287.85986328125	769.3164672851562	-503.932373046875	-2165.27294921875	737.7607421875	-461.1997680664062	-2507.11669921875	72.9087905883789	-213.4895324707031	-2335.12109375	526.3911743164062	-456.5290222167969	-2230.0849609375	687.0111083984375	-485.3582763671875	-2327.844482421875	771.154296875	-172.8044281005859	-2438.308349609375	201.0390930175781	-389.4717407226562	-2406.166015625	771.43701171875	-154.0867004394531	-2331.563232421875	670.2619018554688	-184.32275390625	-2412.306396484375	672.88623046875	-171.7348022460938	-2139.2431640625	578.6346435546875	-448.8683166503906	-2386.4794921875	500.6561279296875	-214.8782196044922	-2301.5751953125	450.017333984375	-445.3157958984375	-2396.50830078125	414.5938415527344	-440.3263244628906	-2473.930908203125	330.00830078125	-209.5524444580078	-2488.496337890625	247.6055908203125	-448.6408996582031	-2544.808837890625	370.2531433105469	-212.5193328857422	-2586.399169921875	394.1255187988281	-359.2123413085938	-2522.768798828125	242.6135559082031	-225.9943542480469	-2590.89306640625	284.5054931640625	-239.9861450195312	-2518.13720703125	388.2249755859375	-434.933837890625	-2617.740234375	152.0643615722656	-227.3046112060547	-2453.03515625	72.95091247558594	-287.4013671875	-2699.167724609375	127.6406326293945	-269.2536926269531	-2695.404052734375	96.68840789794922	-299.2083129882812	-2700.70361328125	101.5805740356445	-247.7608795166016	-2590.94384765625	393.8795471191406	-409.8281555175781
